<svg id="visual" viewBox="0 0 960 300" width="960" height="300" xmlns="http://www.w3.org/2000/svg" xmlns:xlink="http://www.w3.org/1999/xlink" version="1.1"><rect x="0" y="0" width="960" height="300" fill="#C8C8C8"></rect><path d="M0 120L22.8 129.7C45.7 139.3 91.3 158.7 137 168.5C182.7 178.3 228.3 178.7 274 177.2C319.7 175.7 365.3 172.3 411.2 162.8C457 153.3 503 137.7 548.8 147.5C594.7 157.3 640.3 192.7 686 199.5C731.7 206.3 777.3 184.7 823 175.5C868.7 166.3 914.3 169.7 937.2 171.3L960 173L960 301L937.2 301C914.3 301 868.7 301 823 301C777.3 301 731.7 301 686 301C640.3 301 594.7 301 548.8 301C503 301 457 301 411.2 301C365.3 301 319.7 301 274 301C228.3 301 182.7 301 137 301C91.3 301 45.7 301 22.8 301L0 301Z" fill="#FFF" stroke-linecap="round" stroke-linejoin="miter"></path></svg>